<svg id="visual" viewBox="0 0 1920 300" width="1920" height="300" xmlns="http://www.w3.org/2000/svg" xmlns:xlink="http://www.w3.org/1999/xlink" version="1.1"><rect x="0" y="0" width="1920" height="300" fill="#1F2937"></rect><path d="M0 136L45.7 138.3C91.3 140.7 182.7 145.3 274.2 153.7C365.7 162 457.3 174 548.8 171.7C640.3 169.3 731.7 152.7 823 142.8C914.3 133 1005.7 130 1097 137.5C1188.3 145 1279.7 163 1371.2 163.2C1462.7 163.3 1554.3 145.7 1645.8 145.5C1737.3 145.3 1828.7 162.7 1874.3 171.3L1920 180L1920 301L1874.3 301C1828.7 301 1737.3 301 1645.8 301C1554.3 301 1462.7 301 1371.2 301C1279.7 301 1188.3 301 1097 301C1005.7 301 914.3 301 823 301C731.7 301 640.3 301 548.8 301C457.3 301 365.7 301 274.2 301C182.7 301 91.3 301 45.7 301L0 301Z" fill="#a78bfa"></path><path d="M0 181L45.7 176.8C91.3 172.7 182.7 164.3 274.2 161.3C365.7 158.3 457.3 160.7 548.8 169.8C640.3 179 731.7 195 823 201.8C914.3 208.7 1005.7 206.3 1097 197.2C1188.3 188 1279.7 172 1371.2 173.5C1462.7 175 1554.3 194 1645.8 197C1737.3 200 1828.7 187 1874.3 180.5L1920 174L1920 301L1874.3 301C1828.7 301 1737.3 301 1645.8 301C1554.3 301 1462.7 301 1371.2 301C1279.7 301 1188.3 301 1097 301C1005.7 301 914.3 301 823 301C731.7 301 640.3 301 548.8 301C457.3 301 365.7 301 274.2 301C182.7 301 91.3 301 45.7 301L0 301Z" fill="#9c78f8"></path><path d="M0 211L45.7 207.8C91.3 204.7 182.7 198.3 274.2 202.5C365.7 206.7 457.3 221.3 548.8 223.8C640.3 226.3 731.7 216.7 823 210.2C914.3 203.7 1005.7 200.3 1097 204.7C1188.3 209 1279.7 221 1371.2 225.3C1462.7 229.7 1554.3 226.3 1645.8 220.7C1737.3 215 1828.7 207 1874.3 203L1920 199L1920 301L1874.3 301C1828.7 301 1737.3 301 1645.8 301C1554.3 301 1462.7 301 1371.2 301C1279.7 301 1188.3 301 1097 301C1005.7 301 914.3 301 823 301C731.7 301 640.3 301 548.8 301C457.3 301 365.7 301 274.2 301C182.7 301 91.3 301 45.7 301L0 301Z" fill="#9165f5"></path><path d="M0 249L45.7 250.2C91.3 251.3 182.7 253.7 274.2 254C365.7 254.3 457.3 252.7 548.8 253C640.3 253.3 731.7 255.7 823 250.5C914.3 245.3 1005.7 232.7 1097 231.8C1188.3 231 1279.7 242 1371.2 243.3C1462.7 244.7 1554.3 236.3 1645.8 233.2C1737.3 230 1828.7 232 1874.3 233L1920 234L1920 301L1874.3 301C1828.7 301 1737.3 301 1645.8 301C1554.3 301 1462.7 301 1371.2 301C1279.7 301 1188.3 301 1097 301C1005.7 301 914.3 301 823 301C731.7 301 640.3 301 548.8 301C457.3 301 365.7 301 274.2 301C182.7 301 91.3 301 45.7 301L0 301Z" fill="#8651f1"></path><path d="M0 258L45.7 260C91.3 262 182.7 266 274.2 265.3C365.7 264.7 457.3 259.3 548.8 259.8C640.3 260.3 731.7 266.7 823 266.2C914.3 265.7 1005.7 258.3 1097 254.5C1188.3 250.7 1279.7 250.3 1371.2 251C1462.7 251.7 1554.3 253.3 1645.8 255.3C1737.3 257.3 1828.7 259.7 1874.3 260.8L1920 262L1920 301L1874.3 301C1828.7 301 1737.3 301 1645.8 301C1554.3 301 1462.7 301 1371.2 301C1279.7 301 1188.3 301 1097 301C1005.7 301 914.3 301 823 301C731.7 301 640.3 301 548.8 301C457.3 301 365.7 301 274.2 301C182.7 301 91.3 301 45.7 301L0 301Z" fill="#7c3aed"></path></svg>