<svg id="visual" viewBox="0 0 1920 300" width="1920" height="300" xmlns="http://www.w3.org/2000/svg" xmlns:xlink="http://www.w3.org/1999/xlink" version="1.1"><rect x="0" y="0" width="1920" height="300" fill="#1F2937"></rect><path d="M0 169L45.7 178.7C91.3 188.3 182.7 207.7 274.2 212.7C365.7 217.7 457.3 208.3 548.8 204C640.3 199.7 731.7 200.3 823 208.2C914.3 216 1005.7 231 1097 231.5C1188.3 232 1279.7 218 1371.2 206.7C1462.7 195.3 1554.3 186.7 1645.8 191.7C1737.3 196.7 1828.7 215.3 1874.3 224.7L1920 234L1920 0L1874.3 0C1828.7 0 1737.3 0 1645.8 0C1554.3 0 1462.7 0 1371.2 0C1279.7 0 1188.3 0 1097 0C1005.7 0 914.3 0 823 0C731.7 0 640.3 0 548.8 0C457.3 0 365.7 0 274.2 0C182.7 0 91.3 0 45.7 0L0 0Z" fill="#a78bfa"></path><path d="M0 118L45.7 122.5C91.3 127 182.7 136 274.2 142C365.7 148 457.3 151 548.8 160.3C640.3 169.7 731.7 185.3 823 189.7C914.3 194 1005.7 187 1097 180.7C1188.3 174.3 1279.7 168.7 1371.2 158.5C1462.7 148.3 1554.3 133.7 1645.8 134.3C1737.3 135 1828.7 151 1874.3 159L1920 167L1920 0L1874.3 0C1828.7 0 1737.3 0 1645.8 0C1554.3 0 1462.7 0 1371.2 0C1279.7 0 1188.3 0 1097 0C1005.7 0 914.3 0 823 0C731.7 0 640.3 0 548.8 0C457.3 0 365.7 0 274.2 0C182.7 0 91.3 0 45.7 0L0 0Z" fill="#9c78f8"></path><path d="M0 154L45.7 144.7C91.3 135.3 182.7 116.7 274.2 115.2C365.7 113.7 457.3 129.3 548.8 128.7C640.3 128 731.7 111 823 108.2C914.3 105.3 1005.7 116.7 1097 122.2C1188.3 127.7 1279.7 127.3 1371.2 129C1462.7 130.7 1554.3 134.3 1645.8 137.2C1737.3 140 1828.7 142 1874.3 143L1920 144L1920 0L1874.3 0C1828.7 0 1737.3 0 1645.8 0C1554.3 0 1462.7 0 1371.2 0C1279.7 0 1188.3 0 1097 0C1005.7 0 914.3 0 823 0C731.7 0 640.3 0 548.8 0C457.3 0 365.7 0 274.2 0C182.7 0 91.3 0 45.7 0L0 0Z" fill="#9165f5"></path><path d="M0 102L45.7 104.3C91.3 106.7 182.7 111.3 274.2 107.7C365.7 104 457.3 92 548.8 91.3C640.3 90.7 731.7 101.3 823 99C914.3 96.7 1005.7 81.3 1097 75.7C1188.3 70 1279.7 74 1371.2 73.8C1462.7 73.7 1554.3 69.3 1645.8 68.5C1737.3 67.7 1828.7 70.3 1874.3 71.7L1920 73L1920 0L1874.3 0C1828.7 0 1737.3 0 1645.8 0C1554.3 0 1462.7 0 1371.2 0C1279.7 0 1188.3 0 1097 0C1005.7 0 914.3 0 823 0C731.7 0 640.3 0 548.8 0C457.3 0 365.7 0 274.2 0C182.7 0 91.3 0 45.7 0L0 0Z" fill="#8651f1"></path><path d="M0 33L45.7 38.3C91.3 43.7 182.7 54.3 274.2 54.5C365.7 54.7 457.3 44.3 548.8 39.8C640.3 35.3 731.7 36.7 823 43C914.3 49.3 1005.7 60.7 1097 61.2C1188.3 61.7 1279.7 51.3 1371.2 49.2C1462.7 47 1554.3 53 1645.8 56.7C1737.3 60.3 1828.7 61.7 1874.3 62.3L1920 63L1920 0L1874.3 0C1828.7 0 1737.3 0 1645.8 0C1554.3 0 1462.7 0 1371.2 0C1279.7 0 1188.3 0 1097 0C1005.7 0 914.3 0 823 0C731.7 0 640.3 0 548.8 0C457.3 0 365.7 0 274.2 0C182.7 0 91.3 0 45.7 0L0 0Z" fill="#7c3aed"></path></svg>